# xmcd
#
# Track frame offsets: 
#        150
#        14811
#        27561
#        44181
#        54422
#        73193
#        87989
#        105657
#        117220
#        129431
#
# Disc length: 1924 seconds
#
# Revision: 0
# Processed by: cddbd v1.5.2PL0 Copyright (c) Steve Scherf et al.
# Submitted via: ExactAudioCopy v1.0b1
#
DISCID=9207820a
DTITLE=Piano Red - Blues, Blues, Blues
DYEAR=1974
DGENRE=Blues
TTITLE0=Ain't Goin' To Be Your Low Down Dog No More
TTITLE1=I've Got My Fingers Crossed
TTITLE2=Everyday I Have The Blues 
TTITLE3=It's A Sin To Tell A Lie 
TTITLE4=Please, Baby, Come On Home 
TTITLE5=Corrine, Corrina 
TTITLE6=Blues, Blues, Blues
TTITLE7=The Right String Baby, But The Wrong Yo Yo 
TTITLE8=Do She Love Me
TTITLE9=Boogie Time
EXTD=
EXTT0=
EXTT1=
EXTT2=
EXTT3=
EXTT4=
EXTT5=
EXTT6=
EXTT7=
EXTT8=
EXTT9=
PLAYORDER=
